<?xml version="1.0" encoding="UTF-8" standalone="no"?>
<!DOCTYPE svg PUBLIC "-//W3C//DTD SVG 1.1//EN" "http://www.w3.org/Graphics/SVG/1.1/DTD/svg11.dtd">
<svg width="100%" height="100%" viewBox="0 0 663 212" version="1.1" xmlns="http://www.w3.org/2000/svg" xmlns:xlink="http://www.w3.org/1999/xlink" xml:space="preserve" xmlns:serif="http://www.serif.com/" style="fill-rule:evenodd;clip-rule:evenodd;stroke-linejoin:round;stroke-miterlimit:2;">
    <g transform="matrix(1,0,0,1,-78,-101)">
        <clipPath id="_clip1">
            <rect id="Artboard1" x="78" y="101" width="662" height="212"/>
        </clipPath>
        <g clip-path="url(#_clip1)">
            <rect x="0" y="0" width="800" height="600" style="fill:none;"/>
            <path d="M179.844,114.719L96,140C87.965,240.678 125.335,283.366 180,304C240.538,285.436 272.019,234.751 264,140L179.844,114.719ZM220.096,219.626C220.368,216.316 220.935,212.871 221.796,209.29C222.657,205.708 223.711,202.195 224.958,198.75C226.205,195.304 227.599,192.052 229.14,188.992C230.681,185.932 232.245,183.291 233.832,181.07L213.364,181.07L213.364,172.434L246.344,172.434L246.344,179.778C244.893,181.364 243.295,183.563 241.55,186.374C239.805,189.184 238.15,192.369 236.586,195.928C235.022,199.486 233.662,203.306 232.506,207.386C231.35,211.466 230.636,215.546 230.364,219.626L220.096,219.626ZM157.128,184.878C157.128,186.6 156.788,188.255 156.108,189.842C155.428,191.428 154.544,192.958 153.456,194.432C152.368,195.905 151.144,197.322 149.784,198.682C148.424,200.042 147.087,201.334 145.772,202.558C145.092,203.192 144.355,203.906 143.562,204.7C142.769,205.493 142.009,206.298 141.284,207.114C140.559,207.93 139.913,208.689 139.346,209.392C138.779,210.094 138.428,210.672 138.292,211.126L158.556,211.126L158.556,219.626L127.14,219.626C127.049,219.127 127.004,218.492 127.004,217.722L127.004,216.09C127.004,213.914 127.355,211.919 128.058,210.106C128.761,208.292 129.679,206.604 130.812,205.04C131.945,203.476 133.226,202.014 134.654,200.654C136.082,199.294 137.499,197.934 138.904,196.574C139.992,195.531 141.012,194.545 141.964,193.616C142.916,192.686 143.755,191.78 144.48,190.896C145.205,190.012 145.772,189.128 146.18,188.244C146.588,187.36 146.792,186.464 146.792,185.558C146.792,183.563 146.225,182.158 145.092,181.342C143.959,180.526 142.553,180.118 140.876,180.118C139.652,180.118 138.507,180.31 137.442,180.696C136.377,181.081 135.402,181.534 134.518,182.056C133.634,182.577 132.875,183.098 132.24,183.62C131.605,184.141 131.129,184.56 130.812,184.878L125.78,177.806C127.775,175.947 130.098,174.417 132.75,173.216C135.402,172.014 138.247,171.414 141.284,171.414C144.049,171.414 146.429,171.731 148.424,172.366C150.419,173 152.062,173.896 153.354,175.052C154.646,176.208 155.598,177.613 156.21,179.268C156.822,180.922 157.128,182.792 157.128,184.878ZM200.444,184.878C200.444,186.6 200.104,188.255 199.424,189.842C198.744,191.428 197.86,192.958 196.772,194.432C195.684,195.905 194.46,197.322 193.1,198.682C191.74,200.042 190.403,201.334 189.088,202.558C188.408,203.192 187.671,203.906 186.878,204.7C186.085,205.493 185.325,206.298 184.6,207.114C183.875,207.93 183.229,208.689 182.662,209.392C182.095,210.094 181.744,210.672 181.608,211.126L201.872,211.126L201.872,219.626L170.456,219.626C170.365,219.127 170.32,218.492 170.32,217.722L170.32,216.09C170.32,213.914 170.671,211.919 171.374,210.106C172.077,208.292 172.995,206.604 174.128,205.04C175.261,203.476 176.542,202.014 177.97,200.654C179.398,199.294 180.815,197.934 182.22,196.574C183.308,195.531 184.328,194.545 185.28,193.616C186.232,192.686 187.071,191.78 187.796,190.896C188.521,190.012 189.088,189.128 189.496,188.244C189.904,187.36 190.108,186.464 190.108,185.558C190.108,183.563 189.541,182.158 188.408,181.342C187.275,180.526 185.869,180.118 184.192,180.118C182.968,180.118 181.823,180.31 180.758,180.696C179.693,181.081 178.718,181.534 177.834,182.056C176.95,182.577 176.191,183.098 175.556,183.62C174.921,184.141 174.445,184.56 174.128,184.878L169.096,177.806C171.091,175.947 173.414,174.417 176.066,173.216C178.718,172.014 181.563,171.414 184.6,171.414C187.365,171.414 189.745,171.731 191.74,172.366C193.735,173 195.378,173.896 196.67,175.052C197.962,176.208 198.914,177.613 199.526,179.268C200.138,180.922 200.444,182.792 200.444,184.878Z" style="fill:rgb(175, 212, 222);"/>
            <g transform="matrix(1,0,0,1,58.3431,-157.705)">
                <text x="217.587px" y="377.331px" style="font-family:'Ubuntu-Bold', 'Ubuntu', sans-serif;font-weight:700;font-size:67px;fill:rgb(175, 212, 222);">I</text>
                <text x="244.186px" y="377.331px" style="font-family:'Ubuntu-Bold', 'Ubuntu', sans-serif;font-weight:700;font-size:67px;fill:rgb(175, 212, 222);">n</text>
                <text x="289.478px" y="377.331px" style="font-family:'Ubuntu-Bold', 'Ubuntu', sans-serif;font-weight:700;font-size:67px;fill:rgb(175, 212, 222);">f</text>
                <text x="323.112px" y="377.331px" style="font-family:'Ubuntu-Bold', 'Ubuntu', sans-serif;font-weight:700;font-size:67px;fill:rgb(175, 212, 222);">o</text>
                <text x="369.208px" y="377.331px" style="font-family:'Ubuntu-Bold', 'Ubuntu', sans-serif;font-weight:700;font-size:67px;fill:rgb(175, 212, 222);">S</text>
                <text x="414.165px" y="377.331px" style="font-family:'Ubuntu-Bold', 'Ubuntu', sans-serif;font-weight:700;font-size:67px;fill:rgb(175, 212, 222);">e</text>
                <text x="459.189px" y="377.331px" style="font-family:'Ubuntu-Bold', 'Ubuntu', sans-serif;font-weight:700;font-size:67px;fill:rgb(175, 212, 222);">c</text>
                <text x="498.049px" y="377.331px" style="font-family:'Ubuntu-Bold', 'Ubuntu', sans-serif;font-weight:700;font-size:67px;fill:rgb(175, 212, 222);">,</text>
                <text x="541.666px" y="377.331px" style="font-family:'Ubuntu-Bold', 'Ubuntu', sans-serif;font-weight:700;font-size:67px;fill:rgb(175, 212, 222);">I</text>
                <text x="568.131px" y="377.331px" style="font-family:'Ubuntu-Bold', 'Ubuntu', sans-serif;font-weight:700;font-size:67px;fill:rgb(175, 212, 222);">n</text>
                <text x="612.753px" y="377.331px" style="font-family:'Ubuntu-Bold', 'Ubuntu', sans-serif;font-weight:700;font-size:67px;fill:rgb(175, 212, 222);">c</text>
                <text x="652.082px" y="377.331px" style="font-family:'Ubuntu-Bold', 'Ubuntu', sans-serif;font-weight:700;font-size:67px;fill:rgb(175, 212, 222);">.</text>
            </g>
        </g>
    </g>
</svg>
